<svg width="227" height="55" viewBox="0 0 227 55" fill="none" xmlns="http://www.w3.org/2000/svg">
<path d="M79.314 41.492C78.0567 41.492 76.8677 41.2733 75.747 40.836C74.6537 40.3987 73.738 39.8247 73 39.114L74.886 36.121C75.4327 36.695 76.0887 37.1733 76.854 37.556C77.6193 37.9387 78.3983 38.13 79.191 38.13C80.503 38.13 81.5417 37.6653 82.307 36.736C83.0723 35.7793 83.455 34.1803 83.455 31.939V12.3H87.35V31.529C87.35 35.0003 86.612 37.5287 85.136 39.114C83.66 40.6993 81.7193 41.492 79.314 41.492ZM102.876 41.492C100.854 41.492 99.0359 41.0273 97.4232 40.098C95.8105 39.1413 94.5395 37.8293 93.6102 36.162C92.7082 34.4673 92.2572 32.5267 92.2572 30.34C92.2572 28.044 92.7219 26.0623 93.6512 24.395C94.5805 22.7277 95.8515 21.443 97.4642 20.541C99.0769 19.639 100.881 19.188 102.876 19.188C104.872 19.188 106.662 19.639 108.247 20.541C109.86 21.443 111.131 22.7277 112.06 24.395C113.017 26.035 113.495 27.9893 113.495 30.258C113.495 32.5267 113.031 34.5083 112.101 36.203C111.172 37.8703 109.901 39.1687 108.288 40.098C106.703 41.0273 104.899 41.492 102.876 41.492ZM102.876 38.212C105.036 38.212 106.717 37.4877 107.919 36.039C109.122 34.563 109.723 32.6633 109.723 30.34C109.723 28.9187 109.423 27.6203 108.821 26.445C108.22 25.2423 107.4 24.2857 106.361 23.575C105.35 22.837 104.188 22.468 102.876 22.468C100.717 22.468 99.0359 23.1787 97.8332 24.6C96.6305 26.0213 96.0292 27.9073 96.0292 30.258C96.0292 31.6793 96.3299 33.005 96.9312 34.235C97.5325 35.4377 98.3389 36.408 99.3502 37.146C100.389 37.8567 101.564 38.212 102.876 38.212ZM115.017 50.512C113.35 50.512 111.956 50.1977 110.835 49.569L111.737 46.494C112.093 46.7127 112.53 46.904 113.049 47.068C113.541 47.232 114.047 47.314 114.566 47.314C116.89 47.314 118.051 45.8653 118.051 42.968V19.68H121.741V43.337C121.741 45.0043 121.441 46.3573 120.839 47.396C120.238 48.462 119.432 49.241 118.42 49.733C117.409 50.2523 116.275 50.512 115.017 50.512ZM119.814 16.031C119.104 16.031 118.489 15.7713 117.969 15.252C117.477 14.7327 117.231 14.1313 117.231 13.448C117.231 12.6553 117.464 12.0267 117.928 11.562C118.393 11.0973 119.022 10.865 119.814 10.865C120.525 10.865 121.126 11.1247 121.618 11.644C122.138 12.136 122.397 12.7373 122.397 13.448C122.397 14.2133 122.165 14.842 121.7 15.334C121.236 15.7987 120.607 16.031 119.814 16.031ZM137.27 41.492C135.247 41.492 133.429 41.0273 131.817 40.098C130.204 39.1413 128.933 37.8293 128.004 36.162C127.102 34.4673 126.651 32.5267 126.651 30.34C126.651 28.044 127.115 26.0623 128.045 24.395C128.974 22.7277 130.245 21.443 131.858 20.541C133.47 19.639 135.274 19.188 137.27 19.188C139.265 19.188 141.055 19.639 142.641 20.541C144.253 21.443 145.524 22.7277 146.454 24.395C147.41 26.035 147.889 27.9893 147.889 30.258C147.889 32.5267 147.424 34.5083 146.495 36.203C145.565 37.8703 144.294 39.1687 142.682 40.098C141.096 41.0273 139.292 41.492 137.27 41.492ZM137.27 38.212C139.429 38.212 141.11 37.4877 142.313 36.039C143.515 34.563 144.117 32.6633 144.117 30.34C144.117 28.9187 143.816 27.6203 143.215 26.445C142.613 25.2423 141.793 24.2857 140.755 23.575C139.743 22.837 138.582 22.468 137.27 22.468C135.11 22.468 133.429 23.1787 132.227 24.6C131.024 26.0213 130.423 27.9073 130.423 30.258C130.423 31.6793 130.723 33.005 131.325 34.235C131.926 35.4377 132.732 36.408 133.744 37.146C134.782 37.8567 135.958 38.212 137.27 38.212ZM161.487 41.328C159.819 41.328 158.234 41.287 156.731 41.205C155.255 41.123 154.079 41.0273 153.205 40.918V12.382C154.161 12.2727 155.35 12.177 156.772 12.095C158.193 12.013 159.819 11.972 161.651 11.972C165.149 11.972 167.842 12.6417 169.728 13.981C171.614 15.293 172.557 17.0833 172.557 19.352C172.557 20.8553 172.147 22.14 171.327 23.206C170.534 24.2447 169.372 25.1057 167.842 25.789C169.7 26.445 171.108 27.3607 172.065 28.536C173.021 29.684 173.5 31.1053 173.5 32.8C173.5 35.3967 172.475 37.474 170.425 39.032C168.375 40.5627 165.395 41.328 161.487 41.328ZM157.1 24.682H161.61C163.769 24.682 165.477 24.231 166.735 23.329C168.019 22.427 168.662 21.2653 168.662 19.844C168.662 18.3133 168.033 17.1517 166.776 16.359C165.518 15.539 163.796 15.129 161.61 15.129C160.708 15.129 159.888 15.1563 159.15 15.211C158.412 15.2383 157.728 15.2793 157.1 15.334V24.682ZM161.774 38.089C164.206 38.089 166.106 37.6517 167.473 36.777C168.839 35.9023 169.523 34.6313 169.523 32.964C169.523 31.324 168.853 30.0393 167.514 29.11C166.174 28.1807 164.261 27.716 161.774 27.716H157.1V37.843C158.548 38.007 160.106 38.089 161.774 38.089ZM187.148 41.492C184.087 41.492 181.654 40.5217 179.85 38.581C178.073 36.613 177.185 33.866 177.185 30.34C177.185 28.208 177.581 26.3083 178.374 24.641C179.194 22.9463 180.328 21.6207 181.777 20.664C183.226 19.68 184.907 19.188 186.82 19.188C188.87 19.188 190.565 19.639 191.904 20.541C193.271 21.4157 194.296 22.6047 194.979 24.108C195.662 25.6113 196.004 27.265 196.004 29.069C196.004 30.0257 195.963 30.955 195.881 31.857H180.957C181.203 33.8523 181.9 35.4103 183.048 36.531C184.196 37.6517 185.713 38.212 187.599 38.212C188.829 38.212 189.936 38.089 190.92 37.843C191.904 37.5697 192.847 37.228 193.749 36.818L194.61 39.975C193.626 40.4123 192.519 40.7677 191.289 41.041C190.059 41.3417 188.679 41.492 187.148 41.492ZM180.916 28.864H192.601C192.601 26.7867 192.082 25.1877 191.043 24.067C190.004 22.9463 188.569 22.386 186.738 22.386C185.153 22.386 183.841 22.9463 182.802 24.067C181.763 25.1603 181.135 26.7593 180.916 28.864ZM209.45 41.492C206.388 41.492 203.956 40.5217 202.152 38.581C200.375 36.613 199.487 33.866 199.487 30.34C199.487 28.208 199.883 26.3083 200.676 24.641C201.496 22.9463 202.63 21.6207 204.079 20.664C205.527 19.68 207.208 19.188 209.122 19.188C211.172 19.188 212.866 19.639 214.206 20.541C215.572 21.4157 216.597 22.6047 217.281 24.108C217.964 25.6113 218.306 27.265 218.306 29.069C218.306 30.0257 218.265 30.955 218.183 31.857H203.259C203.505 33.8523 204.202 35.4103 205.35 36.531C206.498 37.6517 208.015 38.212 209.901 38.212C211.131 38.212 212.238 38.089 213.222 37.843C214.206 37.5697 215.149 37.228 216.051 36.818L216.912 39.975C215.928 40.4123 214.821 40.7677 213.591 41.041C212.361 41.3417 210.98 41.492 209.45 41.492ZM203.218 28.864H214.903C214.903 26.7867 214.383 25.1877 213.345 24.067C212.306 22.9463 210.871 22.386 209.04 22.386C207.454 22.386 206.142 22.9463 205.104 24.067C204.065 25.1603 203.436 26.7593 203.218 28.864Z" fill="black"/>
<path fill-rule="evenodd" clip-rule="evenodd" d="M0 5.54512L2.75 2.80078H52.25L55 5.54512V49.4546L52.25 52.1989H2.75L0 49.4546V5.54512ZM5.5 8.28946V46.7102H49.5V8.28946H5.5ZM20.8611 27.4999L11.8057 18.4629L15.6948 14.5818L28.6392 27.4999L15.6948 40.4177L11.8057 36.5364L20.8611 27.4999ZM27.5 41.2216H41.25V35.7329H27.5V41.2216Z" fill="black"/>
</svg>
